Fungal-Grow 400 Thickness 0.ufo
<glyph name="seven" format="1">
  <advance width="1303"/>
  <unicode hex="0037"/>
  <outline>
    <contour>
      <point x="168" y="1493" type="line"/>
      <point x="1128" y="1493" type="line"/>
      <point x="1128" y="1407" type="line"/>
      <point x="586" y="0" type="line"/>
      <point x="375" y="0" type="line"/>
      <point x="885" y="1323" type="line"/>
      <point x="168" y="1323" type="line"/>
    </contour>
    <component base="blob1" xScale="0" xyScale="1.2886" yScale="0" yxScale="-1.2886" xOffset="305" yOffset="-202"/>
    <component base="blob2" xScale="0" xyScale="1" yScale="0" yxScale="-1" xOffset="15" yOffset="-700"/>
    <component base="blob3" xScale="0" xyScale="1" yScale="0" yxScale="-1" xOffset="-378" yOffset="-966"/>
    <component base="blob4" xScale="0" xyScale="0.8783" yScale="0" yxScale="-0.8783" xOffset="-768" yOffset="-1227"/>
    <component base="blob5" xScale="0" xyScale="1" yScale="0" yxScale="-1" xOffset="-969" yOffset="-1586"/>
    <component base="blob6" xScale="0" xyScale="1.1539" yScale="0" yxScale="-1.1539" xOffset="-1263" yOffset="-2034"/>
    <component base="blob7" xScale="0" xyScale="0.9753" yScale="0" yxScale="-0.9753" xOffset="-1716" yOffset="-2252"/>
    <component base="blob8" xScale="0" xyScale="0.7047" yScale="0" yxScale="-0.7047" xOffset="-1928" yOffset="-2583"/>
    <component base="blob9" xScale="0" xyScale="0.4869" yScale="0" yxScale="-0.4869" xOffset="-2024" yOffset="-2822"/>
    <component base="blob1" xScale="0" xyScale="1.2886" yScale="0" yxScale="-1.2886" xOffset="-72" yOffset="1493"/>
    <component base="blob2" xScale="0" xyScale="1" yScale="0" yxScale="-1" xOffset="-532" yOffset="1850"/>
    <component base="blob3" xScale="0" xyScale="1" yScale="0" yxScale="-1" xOffset="-573" yOffset="2358"/>
    <component base="blob4" xScale="0" xyScale="0.8783" yScale="0" yxScale="-0.8783" xOffset="-324" yOffset="2736"/>
    <component base="blob5" xScale="0" xyScale="1" yScale="0" yxScale="-1" xOffset="126" yOffset="2700"/>
    <component base="blob6" xScale="0" xyScale="1.1539" yScale="0" yxScale="-1.1539" xOffset="567" yOffset="2428"/>
    <component base="blob7" xScale="0" xyScale="0.9753" yScale="0" yxScale="-0.9753" xOffset="1028" yOffset="2632"/>
    <component base="blob8" xScale="0" xyScale="0.7047" yScale="0" yxScale="-0.7047" xOffset="1251" yOffset="3004"/>
    <component base="blob9" xScale="0" xyScale="0.4869" yScale="0" yxScale="-0.4869" xOffset="1187" yOffset="3290"/>
    <component base="blob2" xScale="0" xyScale="1" yScale="0" yxScale="-1" xOffset="464" yOffset="1349"/>
    <component base="blob3" xScale="0" xyScale="1" yScale="0" yxScale="-1" xOffset="926" yOffset="1436"/>
    <component base="blob4" xScale="0" xyScale="0.8783" yScale="0" yxScale="-0.8783" xOffset="1039" yOffset="1003"/>
    <component base="blob5" xScale="0" xyScale="1" yScale="0" yxScale="-1" xOffset="877" yOffset="590"/>
    <component base="blob2" xScale="0" xyScale="1" yScale="0" yxScale="-1" xOffset="654" yOffset="202"/>
    <contour>
      <point x="651" y="1520" type="move" name="above"/>
    </contour>
    <contour>
      <point x="651" y="0" type="move" name="below"/>
    </contour>
  </outline>
</glyph>
<glyph name="e" format="1">
  <advance width="1260"/>
  <unicode hex="0065"/>
  <outline>
    <contour>
      <point x="1151" y="606" type="curve"/>
      <point x="1151" y="606" type="line"/>
      <point x="1151" y="606" type="line"/>
      <point x="1151" y="516" type="line"/>
      <point x="305" y="516" type="line"/>
      <point x="321" y="262.667"/>
      <point x="461" y="127"/>
      <point x="705" y="127" type="curve" smooth="yes"/>
      <point x="846.333" y="127"/>
      <point x="977.333" y="161.667"/>
      <point x="1108" y="231" type="curve"/>
      <point x="1108" y="57" type="line"/>
      <point x="976" y="1"/>
      <point x="836.667" y="-29"/>
      <point x="694" y="-29" type="curve" smooth="yes"/>
      <point x="336.667" y="-29"/>
      <point x="113" y="194.333"/>
      <point x="113" y="549" type="curve" smooth="yes"/>
      <point x="113" y="915.667"/>
      <point x="326" y="1147"/>
      <point x="662" y="1147" type="curve" smooth="yes"/>
      <point x="963.333" y="1147"/>
      <point x="1151" y="939.333"/>
    </contour>
    <contour>
      <point x="967" y="660" type="line"/>
      <point x="964.333" y="861.333"/>
      <point x="845.333" y="991"/>
      <point x="664" y="991" type="curve" smooth="yes"/>
      <point x="458.667" y="991"/>
      <point x="329.667" y="869.667"/>
      <point x="311" y="659" type="curve"/>
      <point x="967" y="660" type="line"/>
      <point x="967" y="660" type="line"/>
    </contour>
    <component base="blob1" xScale="1.2886" yScale="-1.2886" xOffset="869" yOffset="-167"/>
    <component base="blob2" yScale="-1" xOffset="781" yOffset="-409"/>
    <component base="blob3" yScale="-1" xOffset="922" yOffset="-636"/>
    <component base="blob4" xScale="0.6152" yScale="-0.6152" xOffset="1168" yOffset="-778"/>
    <component base="blob5" yScale="-1" xOffset="1502" yOffset="-979"/>
    <component base="blob6" xScale="1.1539" yScale="-1.1539" xOffset="1628" yOffset="-1327"/>
    <component base="blob7" xScale="0.5898" yScale="-0.5898" xOffset="1574" yOffset="-1664"/>
    <component base="blob8" xScale="0.7047" yScale="-0.7047" xOffset="1378" yOffset="-1833"/>
    <component base="blob9" xScale="0.4869" yScale="-0.4869" xOffset="1146" yOffset="-1989"/>
    <component base="blob4" xScale="0.6152" yScale="-0.6152" xOffset="878" yOffset="704"/>
    <component base="blob5" xScale="0.808" yScale="-0.808" xOffset="680" yOffset="851"/>
    <component base="blob6" xScale="0.8918" yScale="-0.8918" xOffset="366" yOffset="1024"/>
    <component base="blob7" xScale="0.5898" yScale="-0.5898" xOffset="149" yOffset="831"/>
    <component base="blob8" xScale="0.7047" yScale="-0.7047" xOffset="-63" yOffset="686"/>
    <component base="blob9" xScale="0.4869" yScale="-0.4869" xOffset="-267" yOffset="608"/>
    <component base="blob2" yScale="-1" xOffset="557" yOffset="286"/>
    <component base="blob3" yScale="-1" xOffset="883" yOffset="470"/>
    <contour>
      <point x="662" y="1147" type="move" name="above"/>
    </contour>
    <contour>
      <point x="662" y="0" type="move" name="below"/>
    </contour>
    <contour>
      <point x="662" y="0" type="move" name="cedilla"/>
    </contour>
    <contour>
      <point x="0" y="1520" type="move" name="half"/>
    </contour>
    <contour>
      <point x="876" y="0" type="move" name="ogonek"/>
    </contour>
  </outline>
</glyph>
<glyph name="p" format="1">
  <advance width="1300"/>
  <unicode hex="0070"/>
  <outline>
    <contour>
      <point x="371" y="168" type="curve"/>
      <point x="371" y="168" type="line"/>
      <point x="371" y="-426" type="line"/>
      <point x="186" y="-426" type="line"/>
      <point x="186" y="1120" type="line"/>
      <point x="371" y="1120" type="line"/>
      <point x="371" y="950" type="line"/>
      <point x="448.333" y="1083.333"/>
      <point x="565" y="1147"/>
      <point x="729" y="1147" type="curve" smooth="yes"/>
      <point x="1001" y="1147"/>
      <point x="1188" y="911"/>
      <point x="1188" y="559" type="curve" smooth="yes"/>
      <point x="1188" y="207"/>
      <point x="1001" y="-29"/>
      <point x="729" y="-29" type="curve" smooth="yes"/>
      <point x="565" y="-29"/>
      <point x="448.333" y="34.667"/>
    </contour>
    <contour>
      <point x="997" y="559" type="curve"/>
      <point x="997" y="559" type="line"/>
      <point x="997" y="829.667"/>
      <point x="878.667" y="993"/>
      <point x="684" y="993" type="curve" smooth="yes"/>
      <point x="489.333" y="993"/>
      <point x="371" y="829.667"/>
      <point x="371" y="559" type="curve" smooth="yes"/>
      <point x="371" y="288.333"/>
      <point x="489.333" y="125"/>
      <point x="684" y="125" type="curve" smooth="yes"/>
      <point x="878.667" y="125"/>
      <point x="997" y="288.333"/>
    </contour>
    <component base="blob1" xScale="1.2886" yScale="-1.2886" xOffset="263" yOffset="-616"/>
    <component base="blob2" yScale="-1" xOffset="562" yOffset="-968"/>
    <component base="blob3" yScale="-1" xOffset="480" yOffset="-1385"/>
    <component base="blob4" xScale="0.8783" yScale="-0.8783" xOffset="749" yOffset="-1699"/>
    <component base="blob5" yScale="-1" xOffset="782" yOffset="-2086"/>
    <component base="blob6" xScale="1.1539" yScale="-1.1539" xOffset="772" yOffset="-2512"/>
    <component base="blob7" xScale="0.9753" yScale="-0.9753" xOffset="441" yOffset="-2876"/>
    <component base="blob8" xScale="0.7047" yScale="-0.7047" xOffset="198" yOffset="-3183"/>
    <component base="blob9" xScale="0.4869" yScale="-0.4869" xOffset="3" yOffset="-3253"/>
    <component base="blob1" xScale="1.2886" yScale="1.2886" xOffset="504" yOffset="652"/>
    <component base="blob2" xOffset="803" yOffset="1004"/>
    <component base="blob3" xOffset="1097" yOffset="1266"/>
    <component base="blob4" xScale="0.8783" yScale="0.8783" xOffset="1421" yOffset="1496"/>
    <component base="blob5" xOffset="1571" yOffset="1946"/>
    <component base="blob6" xScale="1.1539" yScale="1.1539" xOffset="1449" yOffset="2455"/>
    <component base="blob7" xScale="0.9753" yScale="0.9753" xOffset="1070" yOffset="2833"/>
    <component base="blob8" xScale="0.7047" yScale="0.7047" xOffset="704" yOffset="2968"/>
    <component base="blob9" xScale="0.4869" yScale="0.4869" xOffset="459" yOffset="2808"/>
    <contour>
      <point x="678" y="1147" type="move" name="above"/>
    </contour>
    <contour>
      <point x="678" y="-430" type="move" name="below"/>
    </contour>
    <contour>
      <point x="0" y="1520" type="move" name="half"/>
    </contour>
  </outline>
</glyph>
<glyph name="Iacute" format="1">
  <advance width="604"/>
  <unicode hex="00CD"/>
  <outline>
    <component base="I"/>
    <component base="Acute" xOffset="815" yOffset="373"/>
    <contour>
      <point x="303" y="0" type="move" name="below"/>
    </contour>
    <contour>
      <point x="303" y="0" type="move" name="cedilla"/>
    </contour>
  </outline>
</glyph>
<glyph name="Icircumflex" format="1">
  <advance width="604"/>
  <unicode hex="00CE"/>
  <outline>
    <component base="I"/>
    <component base="Circumflex" xOffset="815" yOffset="373"/>
    <contour>
      <point x="303" y="0" type="move" name="below"/>
    </contour>
    <contour>
      <point x="303" y="0" type="move" name="cedilla"/>
    </contour>
  </outline>
</glyph>
<glyph name="Idieresis" format="1">
  <advance width="604"/>
  <unicode hex="00CF"/>
  <outline>
    <component base="I"/>
    <component base="Dieresis" xOffset="815" yOffset="373"/>
    <contour>
      <point x="303" y="0" type="move" name="below"/>
    </contour>
    <contour>
      <point x="303" y="0" type="move" name="cedilla"/>
    </contour>
  </outline>
</glyph>
<glyph name="uni024E" format="1">
  <advance width="1251"/>
  <unicode hex="024E"/>
  <outline>
    <contour>
      <point x="-4" y="1493" type="line"/>
      <point x="213" y="1493" type="line"/>
      <point x="364" y="1269" type="line"/>
      <point x="888" y="1269" type="line"/>
      <point x="1038" y="1493" type="line"/>
      <point x="1255" y="1493" type="line"/>
      <point x="1104" y="1269" type="line"/>
      <point x="1260" y="1269" type="line"/>
      <point x="1260" y="1105" type="line"/>
      <point x="993" y="1105" type="line"/>
      <point x="727" y="711" type="line"/>
      <point x="727" y="0" type="line"/>
      <point x="524" y="0" type="line"/>
      <point x="524" y="711" type="line"/>
      <point x="258" y="1105" type="line"/>
      <point x="-10" y="1105" type="line"/>
      <point x="-10" y="1269" type="line"/>
      <point x="147" y="1269" type="line"/>
    </contour>
    <contour>
      <point x="778" y="1105" type="line"/>
      <point x="475" y="1105" type="line"/>
      <point x="627" y="879" type="line"/>
    </contour>
    <contour>
      <point x="626" y="1520" type="move" name="above"/>
    </contour>
    <contour>
      <point x="626" y="0" type="move" name="below"/>
    </contour>
  </outline>
</glyph>
<glyph name="uni028F" format="1">
  <advance width="1251"/>
  <unicode hex="028F"/>
  <outline>
    <contour>
      <point x="102" y="1120" type="line"/>
      <point x="319" y="1120" type="line"/>
      <point x="612" y="664" type="line"/>
      <point x="914" y="1120" type="line"/>
      <point x="1131" y="1120" type="line"/>
      <point x="712" y="496" type="line"/>
      <point x="712" y="0" type="line"/>
      <point x="509" y="0" type="line"/>
      <point x="509" y="496" type="line"/>
    </contour>
    <contour>
      <point x="612" y="1147" type="move" name="above"/>
    </contour>
    <contour>
      <point x="612" y="0" type="move" name="below"/>
    </contour>
  </outline>
</glyph>
<glyph name="kappa" format="1">
  <advance width="1207"/>
  <unicode hex="03BA"/>
  <outline>
    <contour>
      <point x="191" y="1120" type="line"/>
      <point x="381" y="1120" type="line"/>
      <point x="381" y="655" type="line"/>
      <point x="864" y="1120" type="line"/>
      <point x="1088" y="1120" type="line"/>
      <point x="647" y="698" type="line"/>
      <point x="1157" y="0" type="line"/>
      <point x="932" y="0" type="line"/>
      <point x="518" y="578" type="line"/>
      <point x="381" y="449" type="line"/>
      <point x="381" y="0" type="line"/>
      <point x="191" y="0" type="line"/>
    </contour>
    <contour>
      <point x="675" y="1147" type="move" name="above"/>
    </contour>
  </outline>
</glyph>
<glyph name="uni0472" format="1">
  <advance width="1612"/>
  <unicode hex="0472"/>
  <outline>
    <component base="uni019F"/>
    <contour>
      <point x="807" y="1520" type="move" name="above"/>
    </contour>
    <contour>
      <point x="807" y="0" type="move" name="below"/>
    </contour>
  </outline>
</glyph>
<glyph name="uni04E9" format="1">
  <advance width="1253"/>
  <unicode hex="04E9"/>
  <outline>
    <component base="uni0275"/>
    <contour>
      <point x="637" y="1147" type="move" name="above"/>
    </contour>
    <contour>
      <point x="637" y="0" type="move" name="below"/>
    </contour>
  </outline>
</glyph>
<glyph name="uni0634" format="1">
  <advance width="2500"/>
  <unicode hex="0634"/>
  <outline>
    <component base="uni0633"/>
    <component base="arabic_3dots" xOffset="1250" yOffset="800"/>
    <contour>
      <point x="600" y="800" type="move" name="rtl-above"/>
    </contour>
    <contour>
      <point x="600" y="-600" type="move" name="rtl-below"/>
    </contour>
  </outline>
</glyph>
<glyph name="uni067C" format="1">
  <advance width="1928"/>
  <unicode hex="067C"/>
  <outline>
    <component base="uni066E"/>
    <component base="arabic_2dots" xOffset="700" yOffset="650"/>
    <component base="arabic_ring" xOffset="681" yOffset="-368"/>
    <contour>
      <point x="900" y="850" type="move" name="rtl-above"/>
    </contour>
    <contour>
      <point x="900" y="-418" type="move" name="rtl-below"/>
    </contour>
  </outline>
</glyph>
<glyph name="uni0687" format="1">
  <advance width="1322"/>
  <unicode hex="0687"/>
  <outline>
    <component base="uni062D"/>
    <component base="arabic_4dots" xOffset="662" yOffset="175"/>
    <contour>
      <point x="650" y="1000" type="move" name="rtl-above"/>
    </contour>
    <contour>
      <point x="812" y="-600" type="move" name="rtl-below"/>
    </contour>
  </outline>
</glyph>
<glyph name="uni068E" format="1">
  <advance width="912"/>
  <unicode hex="068E"/>
  <outline>
    <component base="uni062F"/>
    <component base="arabic_3dots" xOffset="250" yOffset="1050"/>
    <contour>
      <point x="450" y="1500" type="move" name="rtl-above"/>
    </contour>
    <contour>
      <point x="450" y="-150" type="move" name="rtl-below"/>
    </contour>
  </outline>
</glyph>
<glyph name="uni06A4" format="1">
  <advance width="2123"/>
  <unicode hex="06A4"/>
  <outline>
    <component base="uni06A1"/>
    <component base="arabic_3dots" xOffset="1400" yOffset="1150"/>
    <contour>
      <point x="700" y="1100" type="move" name="rtl-above"/>
    </contour>
    <contour>
      <point x="800" y="-200" type="move" name="rtl-below"/>
    </contour>
  </outline>
</glyph>
<glyph name="uni06AF" format="1">
  <advance width="1833"/>
  <unicode hex="06AF"/>
  <outline>
    <component base="uni06A9"/>
    <component base="arabic_gaf_bar" xOffset="970"/>
    <contour>
      <point x="500" y="1400" type="move" name="rtl-above"/>
    </contour>
    <contour>
      <point x="800" y="-150" type="move" name="rtl-below"/>
    </contour>
  </outline>
</glyph>
<glyph name="uni06B2" format="1">
  <advance width="1833"/>
  <unicode hex="06B2"/>
  <outline>
    <component base="uni06AF"/>
    <component base="arabic_2dots" xOffset="600" yOffset="-350"/>
    <contour>
      <point x="500" y="1400" type="move" name="rtl-above"/>
    </contour>
    <contour>
      <point x="800" y="-400" type="move" name="rtl-below"/>
    </contour>
  </outline>
</glyph>
<glyph name="uni07DE" format="1">
  <advance width="1085"/>
  <unicode hex="07DE"/>
  <outline>
    <contour>
      <point x="893" y="0" type="line"/>
      <point x="709" y="0" type="line"/>
      <point x="709" y="897" type="line"/>
      <point x="378" y="897" type="line"/>
      <point x="378" y="637" type="line"/>
      <point x="193" y="637" type="line"/>
      <point x="193" y="1304" type="line"/>
      <point x="378" y="1304" type="line"/>
      <point x="378" y="1044" type="line"/>
      <point x="709" y="1044" type="line"/>
      <point x="709" y="1493" type="line"/>
      <point x="893" y="1493" type="line"/>
    </contour>
    <contour>
      <point x="794" y="1520" type="move" name="rtl-above"/>
    </contour>
    <contour>
      <point x="794" y="0" type="move" name="rtl-below"/>
    </contour>
  </outline>
</glyph>
<glyph name="uni0ECC" format="1">
  <advance width="0"/>
  <unicode hex="0ECC"/>
  <outline>
    <component base="uni0EBC" yOffset="1872"/>
    <contour>
      <point x="0" y="1150" type="move" name="_lao-above"/>
    </contour>
    <contour>
      <point x="-660" y="1150" type="move" name="_lao-above-mark"/>
    </contour>
  </outline>
</glyph>
<glyph name="uni1D01" format="1">
  <advance width="1469"/>
  <unicode hex="1D01"/>
  <outline>
    <contour>
      <point x="11" y="0" type="line"/>
      <point x="484" y="1120" type="line"/>
      <point x="1358" y="1120" type="line"/>
      <point x="1358" y="972" type="line"/>
      <point x="836" y="972" type="line"/>
      <point x="836" y="671" type="line"/>
      <point x="1335" y="671" type="line"/>
      <point x="1335" y="523" type="line"/>
      <point x="836" y="523" type="line"/>
      <point x="836" y="147" type="line"/>
      <point x="1371" y="147" type="line"/>
      <point x="1371" y="0" type="line"/>
      <point x="650" y="0" type="line"/>
      <point x="650" y="275" type="line"/>
      <point x="328" y="275" type="line"/>
      <point x="212" y="0" type="line"/>
    </contour>
    <contour>
      <point x="622" y="973" type="line"/>
      <point x="390" y="423" type="line"/>
      <point x="650" y="423" type="line"/>
      <point x="650" y="973" type="line"/>
    </contour>
    <contour>
      <point x="538" y="1147" type="move" name="above"/>
    </contour>
    <contour>
      <point x="538" y="0" type="move" name="below"/>
    </contour>
  </outline>
</glyph>
<glyph name="uni1D0C" format="1">
  <advance width="1194"/>
  <unicode hex="1D0C"/>
  <outline>
    <contour>
      <point x="186" y="1147" type="line"/>
      <point x="371" y="1147" type="line"/>
      <point x="371" y="735" type="line"/>
      <point x="508" y="832" type="line"/>
      <point x="584" y="726" type="line"/>
      <point x="371" y="575" type="line"/>
      <point x="371" y="170" type="line"/>
      <point x="1020" y="170" type="line"/>
      <point x="1020" y="0" type="line"/>
      <point x="186" y="0" type="line"/>
      <point x="186" y="444" type="line"/>
      <point x="76" y="366" type="line"/>
      <point x="2" y="472" type="line"/>
      <point x="186" y="603" type="line"/>
    </contour>
    <contour>
      <point x="280" y="1147" type="move" name="above"/>
    </contour>
    <contour>
      <point x="600" y="0" type="move" name="below"/>
    </contour>
  </outline>
</glyph>
<glyph name="uni1E0B" format="1">
  <advance width="1300"/>
  <unicode hex="1E0B"/>
  <outline>
    <component base="uni0307" xOffset="1534" yOffset="373"/>
    <component base="d"/>
    <contour>
      <point x="1022" y="1929" type="move" name="above-legacy"/>
    </contour>
    <contour>
      <point x="614" y="0" type="move" name="below"/>
    </contour>
    <contour>
      <point x="0" y="1520" type="move" name="half"/>
    </contour>
  </outline>
</glyph>
<glyph name="uni20D1" format="1">
  <advance width="0"/>
  <unicode hex="20D1"/>
  <outline>
    <contour>
      <point x="-10.168" y="1301" type="line"/>
      <point x="-963" y="1301" type="line"/>
      <point x="-963" y="1401" type="line"/>
      <point x="-222" y="1401" type="line"/>
      <point x="-354" y="1556" type="line"/>
      <point x="-228" y="1556" type="line"/>
    </contour>
    <contour>
      <point x="-512" y="1147" type="move" name="_above"/>
    </contour>
    <contour>
      <point x="-512" y="1282" type="move" name="_above-mark"/>
    </contour>
    <contour>
      <point x="-512" y="1556" type="move" name="above-mark"/>
    </contour>
  </outline>
</glyph>
<glyph name="uniA749" format="1">
  <advance width="874"/>
  <unicode hex="A749"/>
  <outline>
    <contour>
      <point x="345" y="1556" type="line"/>
      <point x="529" y="1556" type="line"/>
      <point x="529" y="1270" type="line"/>
      <point x="754" y="1270" type="line"/>
      <point x="754" y="1106" type="line"/>
      <point x="529" y="1106" type="line"/>
      <point x="529" y="0" type="line"/>
      <point x="345" y="0" type="line"/>
      <point x="345" y="1106" type="line"/>
      <point x="120" y="1106" type="line"/>
      <point x="120" y="1270" type="line"/>
      <point x="345" y="1270" type="line"/>
    </contour>
    <contour>
      <point x="430" y="1520" type="move" name="above"/>
    </contour>
    <contour>
      <point x="430" y="0" type="move" name="below"/>
    </contour>
    <contour>
      <point x="0" y="1520" type="move" name="half"/>
    </contour>
  </outline>
</glyph>
<glyph name="uniFB54" format="1">
  <advance width="570"/>
  <unicode hex="FB54"/>
  <outline>
    <component base="uni066E.init"/>
    <component base="arabic_2dots_a" xOffset="224" yOffset="-250"/>
    <contour>
      <point x="299" y="1000" type="move" name="rtl-above"/>
    </contour>
    <contour>
      <point x="299" y="-550" type="move" name="rtl-below"/>
    </contour>
  </outline>
</glyph>
<glyph name="uniFB88" format="1">
  <advance width="912"/>
  <unicode hex="FB88"/>
  <outline>
    <component base="uni0615" xOffset="-62" yOffset="-250"/>
    <component base="uni062F"/>
    <contour>
      <point x="450" y="1600" type="move" name="rtl-above"/>
    </contour>
    <contour>
      <point x="450" y="-150" type="move" name="rtl-below"/>
    </contour>
  </outline>
</glyph>
<glyph name="uniFB97" format="1">
  <advance width="1833"/>
  <unicode hex="FB97"/>
  <outline>
    <component base="uniFB93"/>
    <component base="arabic_2dots_a" xOffset="725" yOffset="-350"/>
    <contour>
      <point x="500" y="1400" type="move" name="rtl-above"/>
    </contour>
    <contour>
      <point x="800" y="-700" type="move" name="rtl-below"/>
    </contour>
  </outline>
</glyph>
<glyph name="uniFBDB" format="1">
  <advance width="989"/>
  <unicode hex="FBDB"/>
  <outline>
    <component base="uni0648"/>
    <component base="uni0670" xOffset="-20" yOffset="-485"/>
    <contour>
      <point x="500" y="1450" type="move" name="rtl-above"/>
    </contour>
    <contour>
      <point x="500" y="-500" type="move" name="rtl-below"/>
    </contour>
  </outline>
</glyph>
<glyph name="uniFBFD" format="1">
  <advance width="1707"/>
  <unicode hex="FBFD"/>
  <outline>
    <component base="uniFEF0"/>
    <contour>
      <point x="600" y="598" type="move" name="rtl-above"/>
    </contour>
    <contour>
      <point x="700" y="-400" type="move" name="rtl-below"/>
    </contour>
  </outline>
</glyph>
<glyph name="uniFE7D" format="1">
  <advance width="600"/>
  <unicode hex="FE7D"/>
  <outline>
    <component base="uni0651" xOffset="-212"/>
    <component base="uni0640"/>
    <contour>
      <point x="300" y="1800" type="move" name="rtl-above"/>
    </contour>
    <contour>
      <point x="300" y="-100" type="move" name="rtl-below"/>
    </contour>
  </outline>
</glyph>
<glyph name="uniFE9E" format="1">
  <advance width="1322"/>
  <unicode hex="FE9E"/>
  <outline>
    <component base="uniFEA2"/>
    <component base="arabic_dot" xOffset="700" yOffset="-50"/>
    <contour>
      <point x="650" y="1000" type="move" name="rtl-above"/>
    </contour>
    <contour>
      <point x="812" y="-600" type="move" name="rtl-below"/>
    </contour>
  </outline>
</glyph>
<glyph name="uniFEA6" format="1">
  <advance width="1322"/>
  <unicode hex="FEA6"/>
  <outline>
    <component base="uniFEA2"/>
    <component base="arabic_dot" xOffset="575" yOffset="1050"/>
    <contour>
      <point x="650" y="1250" type="move" name="rtl-above"/>
    </contour>
    <contour>
      <point x="812" y="-600" type="move" name="rtl-below"/>
    </contour>
  </outline>
</glyph>
<glyph name="uniFEAC" format="1">
  <advance width="1075"/>
  <unicode hex="FEAC"/>
  <outline>
    <component base="uniFEAA"/>
    <component base="arabic_dot" xOffset="325" yOffset="1050"/>
    <contour>
      <point x="400" y="1250" type="move" name="rtl-above"/>
    </contour>
    <contour>
      <point x="450" y="-150" type="move" name="rtl-below"/>
    </contour>
  </outline>
</glyph>
<glyph name="uni066F.medi" format="1">
  <advance width="1036"/>
  <outline>
    <component base="uni06A1.medi"/>
    <contour>
      <point x="518" y="950" type="move" name="rtl-above"/>
    </contour>
    <contour>
      <point x="518" y="-150" type="move" name="rtl-below"/>
    </contour>
  </outline>
</glyph>
<glyph name="uni0699.fina" format="1">
  <advance width="1130"/>
  <outline>
    <component base="arabic_4dots" xOffset="500" yOffset="1050"/>
    <component base="uniFEAE"/>
    <contour>
      <point x="700" y="1250" type="move" name="rtl-above"/>
    </contour>
    <contour>
      <point x="500" y="-500" type="move" name="rtl-below"/>
    </contour>
  </outline>
</glyph>
<glyph name="uni069D.fina" format="1">
  <advance width="2509"/>
  <outline>
    <component base="uniFEBA"/>
    <component base="arabic_2dots" xOffset="1400" yOffset="-350"/>
    <contour>
      <point x="600" y="800" type="move" name="rtl-above"/>
    </contour>
    <contour>
      <point x="600" y="-600" type="move" name="rtl-below"/>
    </contour>
  </outline>
</glyph>
<glyph name="uni06A3.medi" format="1">
  <advance width="1036"/>
  <outline>
    <component base="uni06A1.medi"/>
    <component base="arabic_dot" xOffset="443" yOffset="1000"/>
    <component base="arabic_dot" xOffset="424" yOffset="-300"/>
    <contour>
      <point x="518" y="1200" type="move" name="rtl-above"/>
    </contour>
    <contour>
      <point x="499" y="-350" type="move" name="rtl-below"/>
    </contour>
  </outline>
</glyph>
<glyph name="uni06B5.init" format="1">
  <advance width="624"/>
  <outline>
    <component base="uni065A" xOffset="-173" yOffset="400"/>
    <component base="uniFEDF"/>
    <contour>
      <point x="339" y="2100" type="move" name="rtl-above"/>
    </contour>
    <contour>
      <point x="339" y="-100" type="move" name="rtl-below"/>
    </contour>
  </outline>
</glyph>
